<!-- Generated by IcoMoon.io -->
<svg version="1.1" xmlns="http://www.w3.org/2000/svg" width="795" height="1024" viewBox="0 0 795 1024">
<title/>
<g id="icomoon-ignore">
</g>
<path fill="#e94b3c" d="M794.605 397.303c0-219.935-177.367-397.303-397.303-397.303s-397.303 177.367-397.303 397.303c0 59.122 14.189 118.245 40.203 170.273 28.379 68.582 66.217 132.434 108.785 191.557 59.122 85.136 122.975 165.543 193.921 241.219 30.744 30.744 78.042 33.109 108.785 2.365l2.365-2.365c70.947-75.677 134.799-156.083 193.921-241.219 54.393-73.312 96.961-156.083 127.704-241.219l2.365-4.73v-2.365c9.46-33.109 16.554-66.217 16.554-101.691 0-2.365 0-2.365 0-4.73-2.365-2.365 0-7.095 0-7.095z"/>
<path fill="#fff" d="M685.82 392.573c0 163.262-132.35 295.612-295.612 295.612s-295.612-132.35-295.612-295.612c0-163.262 132.35-295.612 295.612-295.612s295.612 132.35 295.612 295.612z"/>
</svg>