<svg width="35" height="35" xmlns="http://www.w3.org/2000/svg" version="1.1" xml:space="preserve">
 <g>
  <title>Layer 1</title>
  <ellipse transform="rotate(0.225392 17.0327 15.6279)" stroke="null" ry="11.58748" rx="11.22008" id="svg_3" cy="15.6279" cx="17.03272" fill="#0F3250"/>
  <path class="st0" d="m17.5,1c-8,0 -14.5,6.5 -14.5,14.5c0,8 6.5,14.5 14.5,14.5c8,0 14.5,-6.5 14.5,-14.5c0,-8 -6.5,-14.5 -14.5,-14.5zm6.1,17.7c0,1.1 -2.7,2 -6,2s-6,-0.9 -6,-2l0,-2.9l5.8,1.7c0.1,0 0.1,0 0.2,0l0,0c0.1,0 0.1,0 0.2,0l5.8,-1.7l0,2.9zm3.1,-5l-0.7,0.2l0,1.2l0.6,1.6c0,0.1 0,0.1 0,0.2c0,0.2 -0.2,0.4 -0.4,0.4l-1.3,0c-0.1,0 -0.1,0 -0.2,0c-0.2,-0.1 -0.3,-0.3 -0.3,-0.6l0.6,-1.6l0,-0.9l-7.4,2.2c-0.1,0 -0.2,0 -0.3,0l-9,-2.7c-0.1,0 -0.3,-0.2 -0.3,-0.3c-0.1,-0.2 0.1,-0.5 0.3,-0.6l9,-2.7c0.1,0 0.2,0 0.3,0l9,2.7c0,0 0,0 0,0l0,0l0,0c0.1,0 0.3,0.2 0.3,0.3c0.2,0.3 0,0.5 -0.2,0.6z" fill="#fff"/>
  <ellipse fill="#0F3250" stroke="#000" cx="84.60365" cy="2.33601" id="svg_2" rx="0.10929" ry="4.72667"/>
 </g>
</svg>